<?xml version="1.0" encoding="UTF-8"?>
<!DOCTYPE svg PUBLIC "-//W3C//DTD SVG 1.1//EN" "http://www.w3.org/Graphics/SVG/1.1/DTD/svg11.dtd">
<!-- Creator: CorelDRAW X5 -->
<svg xmlns="http://www.w3.org/2000/svg" xml:space="preserve" width="300px" height="300px" style="shape-rendering:geometricPrecision; text-rendering:geometricPrecision; image-rendering:optimizeQuality; fill-rule:evenodd; clip-rule:evenodd"
viewBox="0 0 300 300"
 xmlns:xlink="http://www.w3.org/1999/xlink">
 <defs>
  <style type="text/css">
   <![CDATA[
    .fil0 {fill:#0083AD;fill-rule:nonzero}
    .fil2 {fill:#FBBA18;fill-rule:nonzero}
    .fil1 {fill:#FEFEFE;fill-rule:nonzero}
   ]]>
  </style>
 </defs>
 <g id="Layer_x0020_1">
  <metadata id="CorelCorpID_0Corel-Layer"/>
  <g id="_219907464">
   <polygon id="_220099568" class="fil0" points="300,0.00744095 300,299.993 -0.000354331,299.993 -0.000354331,0.00744095 "/>
   <polygon id="_220099472" class="fil1" points="199.388,39.796 199.388,24.2299 277.699,24.2299 277.699,37.7285 224.339,94.696 280.203,94.696 280.203,110.292 199.388,110.292 199.388,96.9411 253.043,39.796 "/>
   <polygon id="_220099424" class="fil1" points="238.543,182.024 212.709,146.982 212.709,206.637 196.663,206.637 196.663,120.559 211.9,120.559 238.764,157.147 265.63,120.559 280.276,120.559 280.276,206.637 264.157,206.637 264.157,147.349 "/>
   <polygon id="_220099616" class="fil1" points="103.631,110.292 78.6073,110.292 37.2434,72.314 37.2434,110.292 19.7993,110.292 19.7993,24.2299 37.2434,24.2299 37.2434,62.0823 79.4896,24.2299 103.779,24.2299 55.4967,67.0646 "/>
   <polygon id="_220099304" class="fil1" points="103.631,206.652 78.6073,206.652 37.2434,168.686 37.2434,206.652 19.7993,206.652 19.7993,120.588 37.2434,120.588 37.2434,158.434 79.4896,120.588 103.779,120.588 55.4967,163.425 "/>
   <path id="_220099400" class="fil2" d="M143.303 208.897c24.5084,0 45.927,-18.0114 45.927,-45.2885 0,-27.2537 -21.4186,-45.2654 -45.927,-45.2654 -24.5835,0 -45.927,18.0117 -45.927,45.2654 0,27.2771 21.3435,45.2885 45.927,45.2885zm0 -15.5537c-16.4863,0 -28.704,-13.2399 -28.704,-29.7347 0,-16.4863 12.2177,-29.7114 28.704,-29.7114 16.4863,0 28.704,13.225 28.704,29.7114 0,16.4948 -12.2177,29.7347 -28.704,29.7347z"/>
   <path id="_220101920" class="fil1" d="M170.094 101.496l0 8.79591 17.0745 0 0 -86.0617 -17.0745 0 0 8.76473c-6.33012,-6.30709 -16.7078,-11.0098 -29.4407,-11.0098 -11.5562,0 -22.449,4.60028 -30.3981,12.5933 -8.46426,8.48516 -12.8792,20.3584 -12.8792,32.6785 0,12.2988 4.41496,24.193 12.8792,32.6576 7.94906,7.99264 18.8419,12.6078 30.3981,12.6078 12.7329,0 23.1105,-4.70268 29.4407,-11.0264zm0.809292 -34.239c0,17.8487 -12.2177,29.7574 -28.1155,29.7574 -16.4133,0 -28.1888,-12.7999 -28.1888,-29.7574 0,-16.9643 11.408,-29.7723 28.1888,-29.7723 16.0459,0 28.1155,11.8566 28.1155,29.7723z"/>
  </g>
 </g>
</svg>
